<?xml version="1.0" encoding="utf-8"?>
<!-- Generator: Adobe Illustrator 16.0.4, SVG Export Plug-In . SVG Version: 6.00 Build 0)  -->
<!DOCTYPE svg PUBLIC "-//W3C//DTD SVG 1.1//EN" "http://www.w3.org/Graphics/SVG/1.1/DTD/svg11.dtd">
<svg version="1.1" id="Layer_1" xmlns="http://www.w3.org/2000/svg" xmlns:xlink="http://www.w3.org/1999/xlink" x="0px" y="0px"
	 width="325.352px" height="325.354px" viewBox="0 0 325.352 325.354" enable-background="new 0 0 325.352 325.354"
	 xml:space="preserve">
<g>
	<path d="M141.133,136.542h24.696c6.009,0,10.555,1.542,13.635,4.629c2.383,2.391,3.575,5.352,3.575,8.883v0.148
		c0,1.495-0.185,2.813-0.555,3.956c-0.374,1.146-0.866,2.176-1.485,3.095c-0.617,0.924-1.334,1.73-2.152,2.43
		c-0.813,0.695-1.689,1.291-2.63,1.787c3.02,1.149,5.398,2.702,7.13,4.666c1.735,1.966,2.603,4.689,2.603,8.174v0.146
		c0,2.391-0.46,4.479-1.378,6.27c-0.919,1.791-2.236,3.285-3.951,4.479c-1.713,1.195-3.771,2.094-6.184,2.69
		c-2.408,0.596-5.077,0.896-8.008,0.896h-25.296V136.542z M163.411,157.665c2.533,0,4.553-0.436,6.045-1.305
		c1.492-0.87,2.239-2.277,2.239-4.216v-0.152c0-1.738-0.646-3.069-1.941-3.989c-1.294-0.924-3.161-1.383-5.597-1.383h-11.347v11.045
		H163.411z M166.472,178.712c2.534,0,4.525-0.461,5.968-1.379c1.443-0.92,2.166-2.354,2.166-4.293v-0.148
		c0-1.74-0.672-3.122-2.016-4.143c-1.345-1.02-3.507-1.529-6.493-1.529h-13.286v11.492H166.472z"/>
	<path d="M108.451,108.441v108.45v0.002h108.45v-0.002v-108.45H108.451z M205.046,205.039h-84.741v-84.743h84.741V205.039z"/>
</g>
</svg>
